<svg class="svg-icon" style="width: 1em; height: 1em;vertical-align: middle;fill: currentColor;overflow: hidden;" viewBox="0 0 1024 1024" version="1.1" xmlns="http://www.w3.org/2000/svg"><path d="M781.780353 534.914896c0 14.963807 6.158257 29.834492 16.743336 40.419572 10.578939 10.579963 25.450648 16.743336 40.417525 16.743336 14.96176 0 29.839609-6.163373 40.417525-16.743336 10.585079-10.585079 16.743336-25.455765 16.743336-40.419572 0-14.966876-6.158257-29.837562-16.743336-40.422641-10.578939-10.579963-25.455765-16.743336-40.417525-16.743336-14.966876 0-29.839609 6.163373-40.417525 16.743336C787.93861 505.07631 781.780353 519.948019 781.780353 534.914896L781.780353 534.914896zM781.780353 534.914896"  /><path d="M131.563408 534.914896c0 19.630083 8.082072 39.134299 21.958104 53.014424 13.881149 13.881149 33.390481 21.963221 53.018517 21.963221s39.138392-8.082072 53.018517-21.963221c13.879102-13.879102 21.958104-33.384341 21.958104-53.014424 0-19.629059-8.077979-39.138392-21.958104-53.017494-13.881149-13.881149-33.390481-21.959128-53.018517-21.959128s-39.138392 8.077979-53.018517 21.959128C139.64548 495.776504 131.563408 515.285836 131.563408 534.914896L131.563408 534.914896zM131.563408 534.914896"  /><path d="M465.576691 851.113441c0 14.966876 6.163373 29.839609 16.743336 40.422641 10.585079 10.579963 25.455765 16.738219 40.422641 16.738219 14.963807 0 29.839609-6.158257 40.419572-16.738219 10.579963-10.584056 16.743336-25.455765 16.743336-40.422641 0-14.96176-6.163373-29.839609-16.743336-40.417525-10.579963-10.585079-25.455765-16.743336-40.419572-16.743336-14.966876 0-29.837562 6.158257-40.422641 16.743336C471.740064 821.273832 465.576691 836.150658 465.576691 851.113441L465.576691 851.113441zM465.576691 851.113441"  /><path d="M424.760077 218.712257c0 25.653263 10.56052 51.14689 28.698622 69.284993 18.137079 18.137079 43.63173 28.698622 69.283969 28.698622 25.64917 0 51.142797-10.561543 69.2809-28.698622 18.138102-18.138102 28.698622-43.632753 28.698622-69.284993 0-25.648147-10.56052-51.142797-28.698622-69.2809-18.137079-18.138102-43.63173-28.698622-69.2809-28.698622-25.653263 0-51.14689 10.56052-69.283969 28.698622C435.320597 167.56946 424.760077 193.064111 424.760077 218.712257L424.760077 218.712257zM424.760077 218.712257"  /><path d="M689.166025 758.499114c0 14.966876 6.16235 29.837562 16.742313 40.422641 10.585079 10.579963 25.455765 16.743336 40.419572 16.743336 14.966876 0 29.837562-6.163373 40.422641-16.743336 10.579963-10.585079 16.743336-25.455765 16.743336-40.422641 0-14.963807-6.163373-29.834492-16.743336-40.419572-10.585079-10.579963-25.455765-16.743336-40.422641-16.743336-14.962783 0-29.834492 6.163373-40.419572 16.743336C695.328375 728.664621 689.166025 743.535307 689.166025 758.499114L689.166025 758.499114zM689.166025 758.499114"  /><path d="M213.353203 311.326585c0 22.463618 9.247618 44.788066 25.12933 60.668755 15.885805 15.881712 38.20923 25.128307 60.672848 25.128307 22.463618 0 44.788066-9.245572 60.668755-25.128307 15.881712-15.880689 25.128307-38.205137 25.128307-60.668755 0-22.462594-9.245572-44.787042-25.128307-60.672848-15.880689-15.881712-38.205137-25.12933-60.668755-25.12933-22.462594 0-44.787042 9.247618-60.672848 25.12933C222.599797 266.539542 213.353203 288.86399 213.353203 311.326585L213.353203 311.326585zM213.353203 311.326585"  /><path d="M241.98838 758.499114c0 14.966876 6.163373 29.837562 16.743336 40.422641 10.585079 10.579963 25.455765 16.743336 40.422641 16.743336 14.963807 0 29.839609-6.163373 40.419572-16.743336 10.584056-10.585079 16.742313-25.455765 16.742313-40.422641 0-14.963807-6.158257-29.834492-16.742313-40.419572-10.579963-10.579963-25.455765-16.743336-40.419572-16.743336-14.966876 0-29.837562 6.163373-40.422641 16.743336C248.151753 728.664621 241.98838 743.535307 241.98838 758.499114L241.98838 758.499114zM241.98838 758.499114"  /><path d="M689.166025 311.326585c0 14.9679 6.16235 29.839609 16.742313 40.419572 10.585079 10.584056 25.455765 16.742313 40.419572 16.742313 14.966876 0 29.837562-6.158257 40.422641-16.742313 10.579963-10.579963 16.743336-25.450648 16.743336-40.419572 0-14.966876-6.163373-29.837562-16.743336-40.417525-10.585079-10.585079-25.455765-16.743336-40.422641-16.743336-14.962783 0-29.834492 6.158257-40.419572 16.743336C695.328375 281.489022 689.166025 296.359708 689.166025 311.326585L689.166025 311.326585zM689.166025 311.326585"  /></svg>